<svg width="150" height="100" viewBox="0 0 150 100" fill="none" xmlns="http://www.w3.org/2000/svg">
<rect width="150" height="100" fill="none"/>
<path d="M42.9392 84.9446C39.8674 81.6398 36.412 78.69 33.0664 75.6695C31.2531 74.2157 29.5806 72.5943 28.0712 70.8269C26.9387 69.1464 26.0314 67.3247 25.3723 65.4084C23.6952 61.2519 22.1947 57.0718 20.8696 52.7895C20.0115 48.9679 18.2438 45.4099 15.7166 42.4176C15.449 42.148 14.8587 42.378 15.076 42.7892C19.2257 50.638 21.0194 59.5094 24.4833 67.6836C25.9499 70.9107 28.1523 73.7494 30.9139 75.9718C34.5894 79.2849 38.1908 82.764 42.1464 85.7446C42.6413 86.1178 43.3877 85.4266 42.9392 84.9446Z" fill="#595A5A"/>
<path d="M35.6948 60.3033C34.3513 58.0221 32.368 56.1375 30.8925 53.9256C29.281 51.5125 28.1738 48.893 26.8149 46.3488C26.0882 44.6315 24.7879 43.2198 23.136 42.3546C21.4842 41.4895 19.5832 41.2247 17.7577 41.6053C17.6694 41.6217 17.5908 41.6715 17.5383 41.7444C17.4858 41.8173 17.4634 41.9077 17.4759 41.9966C17.4884 42.0856 17.5347 42.1663 17.6052 42.222C17.6758 42.2776 17.765 42.3039 17.8545 42.2954C24.0143 41.8136 25.1605 48.0938 27.4775 52.3102C29.1147 55.8544 31.6256 58.9244 34.7745 61.2322C34.9026 61.3223 35.0585 61.3642 35.2146 61.3503C35.3706 61.3365 35.5167 61.2678 35.627 61.1565C35.7373 61.0452 35.8046 60.8985 35.817 60.7423C35.8294 60.5862 35.7861 60.4306 35.6948 60.3033Z" fill="#595A5A"/>
<path d="M42.3729 59.2364C40.7241 53.6311 38.297 48.2848 35.1628 43.3538C32.7527 39.0835 29.1901 40.0102 25.4029 42.0985C25.0237 42.3076 25.2565 42.9212 25.6684 42.7341C27.9674 41.6898 31.0041 40.6683 32.9333 42.9814C34.1557 44.8081 35.2009 46.7473 36.0545 48.7727C37.9334 52.3128 39.6631 55.9142 41.4922 59.4768C41.7142 59.9102 42.498 59.7805 42.3729 59.2364Z" fill="#595A5A"/>
<path d="M43.3877 40.3845C42.3575 38.4138 41.2233 35.6113 38.6165 35.6578C36.2943 36.0206 34.1896 37.2327 32.7103 39.0591C32.4371 39.3424 32.8966 39.7736 33.1951 39.5395C34.2312 38.6579 35.4041 37.9511 36.6676 37.4468C39.1647 36.5778 40.3588 38.3262 41.4011 40.1974C42.6102 42.3996 43.6581 44.6865 44.5367 47.0401C46.3318 51.7649 47.3398 56.7285 49.0746 61.4615C49.125 61.5724 49.2133 61.6617 49.3236 61.7134C49.4338 61.7651 49.5589 61.7758 49.6764 61.7436C49.7938 61.7114 49.896 61.6384 49.9645 61.5377C50.033 61.437 50.0634 61.3152 50.0502 61.1941C48.9991 53.936 46.7475 46.9035 43.3877 40.3845Z" fill="#595A5A"/>
<path d="M50.5408 39.6027C49.192 37.0547 45.9924 32.9553 43.0077 36.0494C42.682 36.3869 43.2124 36.795 43.5507 36.5875C49.7276 32.8003 53.169 53.1887 53.9292 56.3971C54.0487 56.9014 54.8577 56.9814 54.9001 56.3867C54.9822 50.5019 53.4762 44.7038 50.5408 39.6027Z" fill="#595A5A"/>
<path d="M56.7418 38.4098C55.6387 35.4644 52.9896 35.9269 50.6993 37.512C50.3731 37.7377 50.6864 38.2477 51.042 38.1029C53.158 37.2405 54.4551 37.1268 55.475 39.4517C55.9901 40.8792 56.3646 42.3537 56.5932 43.8541C57.1128 46.3348 57.3305 48.846 57.7292 51.3446C57.747 51.4503 57.802 51.5461 57.8842 51.6149C57.9664 51.6837 58.0705 51.7208 58.1777 51.7197C58.2849 51.7185 58.3881 51.6791 58.4688 51.6086C58.5496 51.538 58.6024 51.441 58.6179 51.3349C58.9746 46.9402 58.3332 42.5218 56.7418 38.4098Z" fill="#595A5A"/>
<path d="M114.504 21.7545C111.961 19.9936 109.058 18.8216 106.006 18.3238C102.811 17.2416 99.4081 16.9233 96.0687 17.3944C92.5547 18.3416 89.0787 19.509 85.6172 20.7308C84.0722 20.824 82.4659 20.5258 81.993 19.1188C81.8729 18.7615 81.2612 18.9223 81.3502 19.295C81.4707 19.8164 81.7287 20.2961 82.0972 20.6843C82.4657 21.0724 82.9314 21.3548 83.4459 21.5022C80.1454 22.6839 76.8538 23.8884 73.5528 24.9747C73.4849 25.0049 73.4286 25.0564 73.3926 25.1214C73.3565 25.1864 73.3426 25.2614 73.3529 25.335C73.3632 25.4086 73.3972 25.4769 73.4497 25.5295C73.5022 25.5821 73.5704 25.6161 73.644 25.6266C76.7582 25.4191 79.8174 24.7034 82.7003 23.5078C86.2149 22.4143 89.7127 21.2736 93.2058 20.1142C95.096 19.2764 97.142 18.8477 99.2095 18.8561C100.841 19.0396 102.463 19.3091 104.066 19.6635C107.412 20.4755 110.685 21.561 113.854 22.909C114.003 22.964 114.168 22.964 114.317 22.909C114.467 22.8539 114.592 22.7474 114.67 22.6085C114.748 22.4696 114.775 22.3074 114.744 22.1509C114.714 21.9944 114.628 21.8539 114.504 21.7545Z" fill="#595A5A"/>
<path d="M114.463 27.7859C108.349 24.3531 101.279 23.0148 94.3333 23.9752C86.8466 26.3098 79.219 28.166 71.4967 29.5323C71.0933 29.5829 71.0762 30.2644 71.5047 30.2647C78.4599 29.8982 85.3313 28.574 91.9246 26.3294C93.9812 25.5423 96.1544 25.1025 98.3552 25.0279C100.059 25.1968 101.748 25.4851 103.412 25.8908C107.018 26.6603 110.474 28.8145 114.105 29.2059C114.281 29.2207 114.456 29.1727 114.599 29.0705C114.742 28.9683 114.844 28.8186 114.887 28.648C114.93 28.4773 114.911 28.297 114.834 28.1391C114.756 27.9812 114.625 27.856 114.463 27.7859Z" fill="#595A5A"/>
<path d="M110.736 36.0077C109.857 35.915 108.972 35.8809 108.088 35.9057C105.022 34.8285 101.86 33.9821 98.7497 33.0433C96.4549 32.1307 93.9578 31.848 91.517 32.2244C84.9467 34.0496 78.0655 34.4698 71.3219 33.4577C70.975 33.3811 70.8294 33.9546 71.1688 34.064C76.7884 35.7683 82.7596 35.9507 88.4727 34.5924C89.8498 34.3201 91.2208 33.9018 92.6138 33.721C94.4884 33.6509 96.3553 33.996 98.0809 34.7317C99.7077 35.2338 101.332 35.7639 102.962 36.2737C102.396 36.3226 101.833 36.3682 101.277 36.399C97.8547 36.5892 94.4295 36.7442 91.002 36.8137C83.8944 36.9583 76.7631 36.7651 69.6708 36.2852C69.5795 36.2795 69.4894 36.309 69.4192 36.3676C69.349 36.4263 69.304 36.5096 69.2934 36.6005C69.2828 36.6914 69.3075 36.7829 69.3624 36.8561C69.4173 36.9293 69.4982 36.9786 69.5884 36.994C76.3546 38.2448 83.2322 38.7916 90.1111 38.6255C93.4088 38.5898 96.7021 38.4779 99.9949 38.3232C103.598 38.3929 107.2 38.127 110.754 37.529C110.934 37.4971 111.096 37.4023 111.213 37.2616C111.329 37.121 111.392 36.9435 111.39 36.7609C111.388 36.5783 111.321 36.4023 111.201 36.2644C111.081 36.1265 110.917 36.0355 110.736 36.0077Z" fill="#595A5A"/>
<path d="M115.123 59.0678C112.371 57.9961 109.529 57.1725 106.631 56.6069C104.125 55.9221 101.565 55.3763 99.1169 54.4972C94.9197 52.5714 91.0563 49.9887 87.6725 46.8462C90.3656 47.2719 93.0588 47.7108 95.7263 48.2865C99.7603 49.1574 103.41 50.8224 107.338 51.9228C108.244 52.1767 109.114 50.9884 108.212 50.3671C102.362 47.282 95.9303 45.4605 89.3321 45.0207C85.7936 44.4661 82.242 43.9904 78.6948 43.5015C75.1236 43.0093 70.4719 43.0657 68.3922 39.5951C68.1676 39.2203 67.6601 39.5951 67.773 39.9543C68.1591 41.0745 68.8336 42.0731 69.7285 42.8496C70.6235 43.626 71.7073 44.1529 72.8707 44.3771C76.6438 45.2175 80.4577 45.8627 84.2973 46.3103L85.7593 46.542C88.8752 50.6335 92.8935 53.9504 97.5013 56.2345C99.809 57.1025 102.179 57.7942 104.591 58.3039C107.904 59.3572 111.309 60.099 114.759 60.5196C114.938 60.5338 115.116 60.4841 115.262 60.3793C115.408 60.2746 115.512 60.1215 115.555 59.9474C115.599 59.7733 115.579 59.5894 115.5 59.4284C115.421 59.2673 115.287 59.1396 115.123 59.0678Z" fill="#595A5A"/>
<path d="M112.204 15.5512C109.643 15.2506 107.068 15.1096 104.51 14.7727C102.369 14.3297 100.188 14.1128 98.0029 14.1258C93.2927 14.89 88.6756 16.1457 84.2272 17.8723C83.854 17.9855 84.0263 18.6082 84.4075 18.5318C86.698 18.0688 89.0012 17.678 91.2846 17.1743C93.4146 16.5642 95.5913 16.1313 97.7926 15.8799C100.298 15.9713 102.791 16.2766 105.245 16.7923C107.481 17.0671 109.737 17.291 111.988 17.3817C112.109 17.3959 112.23 17.3863 112.347 17.3533C112.463 17.3204 112.572 17.2649 112.667 17.1899C112.762 17.115 112.842 17.022 112.901 16.9164C112.96 16.8108 112.997 16.6945 113.012 16.5743C113.026 16.4542 113.016 16.3323 112.983 16.2159C112.95 16.0994 112.895 15.9906 112.82 15.8956C112.745 15.8006 112.652 15.7213 112.546 15.6622C112.441 15.6031 112.324 15.5654 112.204 15.5512Z" fill="#595A5A"/>
<path d="M134.601 31.707C132.463 28.2078 129.878 25.0031 126.909 22.1745C124.209 20.2114 121.296 18.5597 118.225 17.2507C117.823 17.0034 117.271 17.4587 117.606 17.8756C119.77 20.5687 123.295 21.624 125.689 24.1138C128.152 27.1368 130.778 30.0243 133.553 32.7637C134.259 33.3559 134.993 32.3781 134.601 31.707Z" fill="#595A5A"/>
<path d="M78.4103 82.9168C77.2588 80.9302 75.9925 79.0125 74.6179 77.1732C73.5122 74.8331 72.8878 72.2947 72.7819 69.7086C72.3179 65.0964 70.479 60.7299 67.5036 57.1754C67.4446 57.1037 67.362 57.0554 67.2706 57.0389C67.1792 57.0225 67.0849 57.039 67.0046 57.0856C66.9242 57.1322 66.8631 57.2059 66.832 57.2934C66.8009 57.3809 66.8018 57.4766 66.8347 57.5634C67.5492 60.0952 68.7765 62.4355 69.5749 64.9401C70.2163 67.619 70.6606 70.3413 70.9041 73.0852C71.8184 77.2531 74.1295 80.9835 77.4545 83.6579C77.9365 84.1056 78.6153 83.4513 78.4103 82.9168Z" fill="#595A5A"/>
<path d="M68.3217 41.8111C60.3627 50.0411 53.3855 59.1895 45.9434 67.8707C45.6257 68.2414 46.2262 68.6852 46.5461 68.3252C54.1522 59.7704 62.2893 51.6146 69.3748 42.6053C69.9134 41.9208 68.8947 41.2186 68.3217 41.8111Z" fill="#595A5A"/>
<path d="M74.5938 44.1632C66.6347 52.3932 59.6576 61.5416 52.2155 70.2228C51.8978 70.5935 52.4983 71.0373 52.8182 70.6773C60.4243 62.1225 68.5614 53.9667 75.6468 44.9574C76.1854 44.2726 75.1667 43.5707 74.5938 44.1632Z" fill="#595A5A"/>
<path d="M51.124 71.6615C50.0932 72.4749 48.7845 72.8518 47.4789 72.7112C46.8571 72.6404 46.2668 72.3994 45.7732 72.0146C44.7644 71.1726 45.2643 69.9513 45.7163 68.9917C45.8518 68.7045 45.4308 68.4921 45.2431 68.726C43.8108 70.5122 43.8372 72.6261 46.1197 73.6725C47.0638 74.0881 48.1161 74.1906 49.1226 73.9649C50.1549 73.7002 51.0504 73.0579 51.6321 72.1649C51.8916 71.8599 51.4208 71.3787 51.124 71.6615Z" fill="#595A5A"/>
<path d="M40.741 64.1588C40.9452 64.2705 41.1717 64.3349 41.4041 64.3474C41.6364 64.3598 41.8686 64.32 42.0835 64.2307C42.2984 64.1415 42.4905 64.0052 42.6457 63.8319C42.8009 63.6585 42.9152 63.4526 42.9802 63.2292C43.2098 61.5245 42.7541 59.7983 41.713 58.4291C40.8314 56.9944 39.8375 55.6319 38.7407 54.3542L38.5379 54.1618C38.4056 53.9921 38.2343 53.8568 38.0385 53.7675C37.8427 53.6783 37.6283 53.6376 37.4134 53.6491C37.1985 53.6606 36.9896 53.7238 36.8044 53.8334C36.6192 53.943 36.4633 54.0958 36.3499 54.2786C35.119 55.9412 35.9874 58.4607 36.772 60.1321C37.5674 61.9082 38.9766 63.3379 40.741 64.1588Z" fill="#595A5A"/>
<path d="M17.4315 39.9592C17.2336 39.8368 17.0108 39.7603 16.7795 39.7355C16.5482 39.7106 16.3142 39.738 16.0949 39.8156C15.8756 39.8932 15.6764 40.019 15.5122 40.1838C15.3479 40.3485 15.2228 40.5481 15.1459 40.7677C14.8254 42.4576 15.1881 44.2056 16.1544 45.6285C16.958 47.1083 17.8776 48.5221 18.9044 49.8567L19.0968 50.0584C19.2198 50.235 19.3837 50.3791 19.5744 50.4787C19.7652 50.5783 19.9772 50.6303 20.1923 50.6303C20.4075 50.6303 20.6195 50.5783 20.8102 50.4787C21.001 50.3791 21.1648 50.235 21.2879 50.0584C22.6069 48.4645 21.8735 45.9019 21.1793 44.191C20.4798 42.3755 19.1491 40.873 17.4315 39.9592Z" fill="#595A5A"/>
<path d="M56.2266 54.4441C56.3275 54.5837 56.4585 54.6988 56.6098 54.7811C56.7611 54.8633 56.9289 54.9106 57.1009 54.9193C57.2729 54.9281 57.4447 54.8981 57.6036 54.8317C57.7625 54.7652 57.9044 54.6639 58.019 54.5353C58.715 53.4692 58.9599 52.1707 58.6999 50.9243C58.5673 49.6849 58.3368 48.458 58.0104 47.2551L57.9357 47.0627C57.9011 46.9073 57.8296 46.7625 57.7271 46.6407C57.6247 46.5188 57.4943 46.4235 57.3471 46.3628C57.2 46.3021 57.0403 46.2779 56.8817 46.292C56.7232 46.3062 56.5704 46.3585 56.4363 46.4444C55.0845 47.1638 54.863 49.1238 54.8556 50.4904C54.8221 51.9303 55.3089 53.334 56.2266 54.4441Z" fill="#595A5A"/>
<path d="M47.4173 63.6648C47.5938 63.8164 47.8022 63.9265 48.0269 63.9868C48.2516 64.0472 48.487 64.0563 48.7157 64.0136C48.9445 63.9709 49.1607 63.8774 49.3485 63.74C49.5363 63.6025 49.6908 63.4247 49.8007 63.2196C50.3789 61.5997 50.2911 59.8166 49.5567 58.2612C48.9918 56.6749 48.3022 55.1359 47.4943 53.6585L47.3354 53.4293C47.2412 53.2358 47.1017 53.068 46.9287 52.94C46.7556 52.8121 46.5542 52.7279 46.3417 52.6946C46.1291 52.6613 45.9116 52.6798 45.7077 52.7486C45.5038 52.8175 45.3196 52.9345 45.1707 53.0899C43.6219 54.4612 43.9489 57.1057 44.3697 58.9035C44.7797 60.8055 45.8617 62.496 47.4173 63.6648Z" fill="#595A5A"/>
<path d="M52.1987 59.7015C52.358 59.8713 52.5533 60.0032 52.7704 60.0874C52.9874 60.1717 53.2206 60.2061 53.4527 60.1881C53.6848 60.1702 53.9099 60.1004 54.1115 59.9838C54.313 59.8672 54.4858 59.7069 54.617 59.5146C55.3656 57.966 55.4695 56.1838 54.9061 54.5587C54.5143 52.9212 53.9934 51.3172 53.3482 49.7619L53.215 49.5162C53.1421 49.3137 53.0213 49.1318 52.863 48.986C52.7047 48.8403 52.5135 48.7349 52.3057 48.679C52.0978 48.623 51.8796 48.6181 51.6695 48.6647C51.4594 48.7113 51.2636 48.808 51.0989 48.9465C49.4119 50.1439 49.4534 52.8082 49.6793 54.6406C49.8829 56.5757 50.7774 58.3726 52.1987 59.7015Z" fill="#595A5A"/>
<path d="M69.9377 29.5634C69.7289 29.5264 69.5311 29.4431 69.3588 29.3195C69.1866 29.196 69.0442 29.0353 68.9423 28.8494C68.8404 28.6635 68.7816 28.4571 68.77 28.2454C68.7585 28.0337 68.7947 27.8221 68.8758 27.6263C69.4065 26.2066 71.1996 25.4454 72.5121 24.9364C73.9564 24.4191 75.4394 24.017 76.9472 23.7339L77.2006 23.7135C77.3914 23.6683 77.5902 23.6698 77.7803 23.7179C77.9703 23.7661 78.1459 23.8594 78.2921 23.99C78.4383 24.1207 78.5507 24.2847 78.6199 24.4681C78.6891 24.6516 78.7129 24.849 78.6893 25.0436C78.6164 26.9269 76.5633 28.2229 75.0533 28.9635C73.4758 29.7723 71.6595 29.9853 69.9377 29.5634Z" fill="#595A5A"/>
<path d="M80.0841 20.6167C79.9352 20.5652 79.7997 20.4809 79.6876 20.3701C79.5756 20.2593 79.4898 20.1247 79.4367 19.9763C79.3835 19.828 79.3644 19.6696 79.3806 19.5128C79.3968 19.3561 79.448 19.2049 79.5304 19.0706C80.2804 18.1791 81.3533 17.6213 82.514 17.5196C83.6347 17.3082 84.7705 17.1859 85.9106 17.1538L86.0988 17.1684C86.2442 17.1574 86.39 17.1817 86.5239 17.2391C86.6578 17.2966 86.7759 17.3857 86.868 17.4986C86.9601 17.6115 87.0235 17.7451 87.0529 17.8878C87.0823 18.0306 87.0768 18.1783 87.0368 18.3184C86.7639 19.6925 85.1051 20.4048 83.91 20.7725C82.6575 21.1825 81.2991 21.1272 80.0841 20.6167Z" fill="#595A5A"/>
<path d="M68.2718 33.6855C68.0708 33.6182 67.8874 33.5067 67.7352 33.3591C67.583 33.2116 67.4659 33.0317 67.3924 32.8329C67.319 32.634 67.2911 32.4212 67.3108 32.2102C67.3306 31.9991 67.3974 31.7952 67.5064 31.6134C68.5033 30.4043 69.9389 29.6398 71.4986 29.4875C73.0034 29.1882 74.5295 29.0085 76.0626 28.9502L76.316 28.9673C76.5113 28.9505 76.7078 28.9812 76.8888 29.0568C77.0697 29.1323 77.2297 29.2505 77.3551 29.4012C77.4805 29.5519 77.5676 29.7307 77.6091 29.9223C77.6505 30.1139 77.645 30.3127 77.593 30.5018C77.2443 32.354 75.0227 33.3337 73.4201 33.8446C71.7407 34.4126 69.9128 34.3561 68.2718 33.6855Z" fill="#595A5A"/>
<path d="M65.3646 39.1887C65.1899 39.0686 65.0443 38.9109 64.9386 38.7271C64.833 38.5433 64.7699 38.3382 64.7541 38.1268C64.7383 37.9154 64.7701 37.7031 64.8472 37.5056C64.9243 37.3082 65.0448 37.1305 65.1997 36.9858C66.4915 36.0981 68.0826 35.7589 69.6241 36.0427C71.1528 36.1699 72.669 36.418 74.1585 36.7846L74.3973 36.8709C74.5897 36.9087 74.7702 36.9923 74.9233 37.1148C75.0764 37.2373 75.1976 37.395 75.2766 37.5745C75.3557 37.7539 75.3901 37.9498 75.3771 38.1455C75.3641 38.3411 75.304 38.5307 75.2019 38.6981C74.3561 40.3824 71.9507 40.7122 70.2694 40.7614C68.4985 40.8443 66.7571 40.2859 65.3646 39.1887Z" fill="#595A5A"/>
</svg>
