<svg width="100" height="100" viewBox="0 0 100 100" fill="none" xmlns="http://www.w3.org/2000/svg">
<rect width="100" height="100" fill="white"/>
<path d="M40.8537 70.2791C39.1767 69.3575 37.9444 69.4559 37.1517 69.8516C36.4068 69.4718 35.1824 69.3019 33.3486 70.2685C32.1496 70.8953 31.1032 70.9324 30.4393 70.8528C29.8562 70.781 29.2947 71.0599 29.0077 71.5726C28.7195 72.0851 28.7713 72.7146 29.1405 73.1766C30.1908 74.4832 32.9396 77.3435 36.8434 77.3435C37.1554 77.3435 37.4767 77.3248 37.8047 77.2877C41.8614 76.799 44.0575 74.4486 45.0031 73.0916C45.3298 72.6269 45.351 72.0133 45.0562 71.5274C44.7601 71.0386 44.2037 70.7757 43.6261 70.8447C42.993 70.9431 41.9971 70.9059 40.8537 70.2791ZM37.5459 75.1259C35.1412 75.4074 33.2171 74.2044 31.9252 72.9907C32.7511 72.8739 33.5731 72.6082 34.3592 72.1966C35.5675 71.5567 36.1318 71.7213 36.266 71.8487C36.4653 72.1461 36.7826 72.3533 37.1438 72.3533C37.1466 72.3533 37.1492 72.3533 37.1532 72.3533C37.5395 72.3506 37.8743 72.1754 38.0654 71.8381C38.1663 71.7185 38.675 71.5645 39.8062 72.186C40.6772 72.6641 41.5005 72.9005 42.223 72.9986C41.2588 73.9121 39.7542 74.8602 37.5459 75.1259Z" fill="#595A5A"/>
<path d="M44.0898 58.3414C45.7549 58.3414 47.1877 57.6987 47.946 57.1463C48.4306 56.7956 48.5368 56.1212 48.1889 55.6351C47.8423 55.1544 47.1665 55.0376 46.6739 55.3828C46.5703 55.4545 44.1509 57.1276 41.6759 55.3775C41.1859 55.0374 40.5073 55.1517 40.1594 55.6404C39.8128 56.1291 39.9296 56.809 40.4196 57.1569C41.657 58.0307 42.929 58.3414 44.0898 58.3414Z" fill="#595A5A"/>
<path d="M34.302 57.1464C34.788 56.7957 34.8969 56.1133 34.5437 55.6273C34.1905 55.1439 33.5079 55.0352 33.0247 55.3884C32.9981 55.4043 30.5323 57.1519 28.0305 55.3778C27.5379 55.0377 26.8593 55.152 26.514 55.6407C26.1674 56.1294 26.2842 56.8093 26.7742 57.1572C28.0118 58.031 29.2851 58.3417 30.4458 58.3417C32.111 58.3415 33.5438 57.6988 34.302 57.1464Z" fill="#595A5A"/>
<path d="M89.2477 87.4724C89.1972 87.1803 89.0273 86.9199 88.7803 86.7553L68.4065 73.0847C68.3329 72.892 68.2219 72.7124 68.0417 72.5842L58.6722 65.8806C59.6187 64.2386 60.1909 62.4821 60.4808 60.7228C66.4701 48.8343 64.0905 38.9007 60.5635 32.2177C60.7682 28.2507 59.8624 24.1237 57.8356 19.9421C54.9733 14.0362 50.1241 12.0532 46.0114 11.5341C45.0673 10.8029 43.8934 10.0954 42.4668 9.43479C40.0341 8.31144 37.4595 7.59036 34.8143 7.29428C31.3472 6.90646 28.9291 7.42703 27.4128 8.88767C26.2924 9.96689 25.82 11.4021 25.6519 13.0156C25.6045 13.1784 25.5419 13.5371 25.5816 14.0615C25.5528 15.059 25.6025 16.1037 25.6814 17.1723C25.7301 17.832 25.8704 18.4705 26.0337 19.1028C24.391 19.9061 10.9833 27.017 11.654 43.9747C10.4095 47.4041 9.85284 51.3925 10.6354 55.922C11.0903 58.5571 11.9003 60.9167 13.0026 62.9796C14.2215 67.3947 17.5658 69.5244 19.6501 70.4536C21.0691 74.5665 23.091 77.5013 24.9158 79.4673C24.959 81.004 24.9609 87.1845 22.4109 90.3112C22.0312 90.7787 22.1015 91.4639 22.5662 91.8436C22.768 92.0057 23.0124 92.0879 23.2541 92.0879C23.5689 92.0879 23.8822 91.9498 24.0973 91.6869C26.3922 88.8704 26.9562 84.3229 27.0734 81.4987C30.0089 83.8895 33.3312 85.2654 36.1078 85.2654C36.4145 85.2654 36.7133 85.2494 37.0054 85.2148C37.0054 85.2176 37.7184 85.2441 38.8751 85.0687C40.562 84.8093 43.5349 84.0208 46.523 81.7188C46.627 84.5297 47.1717 89.1873 49.5045 92.0533C49.7197 92.3162 50.0329 92.4543 50.3477 92.4543C50.5894 92.4543 50.8324 92.3746 51.0342 92.21C51.5002 91.8303 51.5707 91.1451 51.1909 90.6776C48.5859 87.4775 48.647 81.0767 48.6908 79.7436C50.4891 77.8293 52.1685 75.2358 53.4466 71.7361L54.5727 71.9684L64.4141 78.0389C64.592 78.1479 64.7885 78.201 64.985 78.201C64.9993 78.201 65.0119 78.1913 65.026 78.1909L85.3811 91.8515C85.5616 91.9736 85.7715 92.0374 85.9866 92.0374C86.069 92.0374 86.1512 92.0267 86.2309 92.0081L88.8813 91.3972C89.4444 91.267 89.8082 90.7227 89.7099 90.1517L89.2477 87.4724ZM28.9227 10.4547C29.9305 9.48532 31.8334 9.15079 34.5728 9.45621C36.9856 9.72702 39.3345 10.3844 41.5533 11.4109C41.5861 11.4259 41.6099 11.442 41.6423 11.4572C39.8545 11.609 38.6584 11.9223 38.6187 11.9327C38.041 12.096 37.7052 12.695 37.8671 13.2725C38.0276 13.8502 38.6147 14.1847 39.2068 14.028C39.6888 13.8939 51.0235 10.8769 55.8757 20.8904C57.101 23.4173 57.8396 25.9051 58.1826 28.339C55.7978 24.9653 53.5914 23.072 53.5279 23.019C53.0657 22.6312 52.3833 22.6924 51.9969 23.1545C51.6106 23.6139 51.6703 24.3004 52.131 24.6869C52.4357 24.9433 55.7354 27.7851 58.4412 32.6462C58.4877 32.819 58.5668 32.9758 58.686 33.1039C61.4803 38.3287 63.4903 45.7518 60.6007 54.7329C60.1975 50.9481 59.0961 48.0512 59.0066 47.821C58.7861 47.262 58.1621 46.9832 57.5963 47.2036C57.0386 47.4213 56.7597 48.0521 56.9776 48.6124C57.0146 48.7049 60.2878 57.3228 57.2782 63.8677L55.6036 61.4239C56.3235 53.0062 52.9381 45.9352 45.5615 40.2879C47.6302 40.4283 50.527 41.3664 52.8718 44.9888C53.0817 45.3101 53.4296 45.4853 53.7853 45.4853C53.9899 45.4853 54.1944 45.4295 54.3775 45.3114C54.8821 44.9847 55.0255 44.3115 54.6988 43.807C50.4907 37.3097 44.5411 37.9648 42.7686 38.3311C40.5115 36.8933 37.9668 35.5596 35.1232 34.3357C33.6432 32.1668 33.4081 29.5625 33.4588 27.8918C35.7353 29.2397 38.4263 30.389 41.5755 31.248C43.712 31.831 45.5046 32.5268 46.9017 33.3141C47.0703 33.4084 47.2536 33.4535 47.4341 33.4535C47.8139 33.4535 48.183 33.2543 48.3835 32.8998C48.6783 32.3766 48.4925 31.7127 47.9692 31.4179C46.4155 30.5428 44.4583 29.7793 42.1492 29.15C38.5493 28.1678 35.5872 26.8177 33.2762 25.2119C33.2092 25.1491 33.1389 25.0953 33.0565 25.0508C30.1188 22.9456 28.3481 20.3968 27.9552 17.564C30.4106 19.2158 34.6774 20.2029 40.7524 20.4896C40.8083 20.4909 46.3694 20.6529 48.2457 24.3458C48.4368 24.7243 48.8193 24.9407 49.2163 24.9407C49.3809 24.9407 49.5496 24.9036 49.7076 24.8226C50.2428 24.5503 50.4565 23.8957 50.1842 23.3607C47.713 18.4954 41.0751 18.3202 40.8253 18.3162C31.675 17.8833 28.933 15.938 28.1123 14.8159C27.9098 14.5399 27.8234 14.3015 27.7767 14.1001C27.8266 12.5807 28.0857 11.2602 28.9227 10.4547ZM17.9439 61.6559C18.0649 63.8164 18.3963 65.7264 18.8129 67.51C16.17 65.7198 13.5856 62.1869 15.2416 55.3141C16.2469 51.1486 17.3849 47.9763 18.621 45.8862C18.9264 45.3696 18.7565 44.7017 18.2385 44.3962C17.722 44.0936 17.0555 44.2607 16.7486 44.7787C15.4022 47.0547 14.1831 50.4275 13.1275 54.8041C13.0272 55.2198 12.9651 55.6071 12.8916 56.0026C12.8614 55.8451 12.8058 55.7101 12.7783 55.5505C11.5023 48.1662 13.8499 41.4006 19.7563 35.4413C20.1785 35.0137 20.176 34.3258 19.7497 33.9023C19.3234 33.4813 18.6329 33.4853 18.2107 33.9089C16.8004 35.3321 15.3431 37.0619 14.0665 39.0814C15.704 27.2089 24.9717 22.0497 26.793 21.1512C27.7415 23.1322 29.2974 24.9266 31.3796 26.5002C31.2593 27.4881 31.1628 29.3992 31.6338 31.549C29.0436 32.0573 23.2104 33.9393 20.8 40.7781C20.6008 41.3437 20.8983 41.9651 21.4652 42.1656C21.5848 42.2068 21.7069 42.2268 21.8265 42.2268C22.2753 42.2268 22.6949 41.9479 22.853 41.5004C24.9849 35.4513 30.3077 33.9788 32.2937 33.6342C32.4773 34.076 32.7009 34.5073 32.9531 34.9394C29.3917 37.4496 17.1337 47.1791 17.9439 61.6559ZM38.5471 82.9178C37.6746 83.0505 37.1209 83.0427 36.9219 83.048C34.3657 83.3188 31.0116 82.0149 28.1753 79.614C25.412 77.277 20.6914 71.8194 20.1164 61.5338C19.3463 47.769 31.9731 38.2723 34.5796 36.465C46.7367 41.7745 53.0666 49.1202 53.4801 58.3242L52.5349 56.9448C52.2123 56.4748 51.5789 56.334 51.0862 56.6235C46.7149 59.1943 43.8187 63.5496 43.1388 68.5742C43.0618 69.1398 43.4377 69.671 43.9967 69.7853L51.2931 71.2917C47.7983 80.512 41.2651 82.4998 38.5471 82.9178ZM54.4841 69.7294L45.4654 67.8678C45.6348 67.0513 45.8929 66.2678 46.1947 65.5063L47.7346 66.5293C47.9192 66.6514 48.129 66.7126 48.3348 66.7126C48.6868 66.7126 49.0334 66.5399 49.2417 66.2266C49.575 65.7247 49.4382 65.0502 48.9376 64.7182L47.1833 63.5529C47.4484 63.1036 47.7364 62.6751 48.0497 62.258L50.4314 63.8419C50.6172 63.964 50.8258 64.0251 51.0329 64.0251C51.3848 64.0251 51.73 63.8525 51.9398 63.5392C52.2731 63.0373 52.1363 62.3627 51.6371 62.0308L49.4778 60.5948C50.0531 60.0362 50.6601 59.5046 51.333 59.043L56.4777 66.5482C56.4795 66.5507 56.4812 66.5533 56.483 66.556L56.5396 66.6386L55.5118 68.1842L54.4841 69.7294ZM64.6611 75.6357L56.5132 70.6083L57.3233 69.3894L58.1337 68.1708L65.9225 73.7422L64.6611 75.6357ZM86.2018 89.7828L66.6095 76.6349L67.5929 75.1572L87.1818 88.3009L87.3916 89.5092L86.2018 89.7828Z" fill="#595A5A"/>
</svg>
