<svg width="100" height="100" viewBox="0 0 100 100" fill="none" xmlns="http://www.w3.org/2000/svg">
<rect width="100" height="100" fill="white"/>
<path d="M28.488 85.0132H28.4083C27.9439 84.9713 27.6004 84.5612 27.6407 84.0968C29.305 65.5436 40.4949 61.7269 52.3523 57.6914C56.3991 56.429 60.341 54.8502 64.1396 52.969C64.3393 52.8441 64.5826 52.8079 64.8094 52.8687C65.0371 52.9303 65.2286 53.084 65.3387 53.292C65.448 53.5007 65.4661 53.7448 65.388 53.9675C65.3099 54.1895 65.1431 54.3695 64.927 54.4631C61.0518 56.3855 57.0304 57.9981 52.9004 59.286C41.0925 63.2712 30.8988 66.779 29.3355 84.1954H29.3347C29.319 84.6516 28.9443 85.0132 28.4881 85.0124L28.488 85.0132Z" fill="#595A5A"/>
<path d="M70.9847 50.07C70.6387 50.0733 70.3256 49.8653 70.1932 49.5448C70.0617 49.2243 70.139 48.8561 70.3872 48.6152C80.4215 38.7108 79.773 9.21761 79.7631 8.87676C79.7582 8.65239 79.842 8.43458 79.9973 8.27268C80.1527 8.10994 80.3655 8.01542 80.5907 8.0105C81.0502 8.0105 81.4266 8.37706 81.4373 8.83731C81.4373 10.0825 82.1145 39.417 71.5623 49.8108H71.5631C71.4111 49.9686 71.204 50.0615 70.9845 50.0697L70.9847 50.07Z" fill="#595A5A"/>
<path d="M40.5334 88.2217C40.0814 88.2226 39.7082 87.8667 39.6869 87.4146C38.8395 68.8015 49.4123 63.5004 60.6119 57.9206C62.8935 56.7847 65.2555 55.5988 67.5074 54.3036H67.5066C67.9085 54.0965 68.4024 54.2411 68.6284 54.6323C68.8545 55.0235 68.7336 55.5241 68.3539 55.7682C66.0519 57.093 63.6708 58.2791 61.3787 59.4354C50.2192 65.0153 40.5835 69.8282 41.3807 87.3452C41.3914 87.5704 41.3125 87.7898 41.1612 87.9567C41.01 88.1227 40.798 88.2221 40.5736 88.232L40.5334 88.2217Z" fill="#595A5A"/>
<path d="M74.2125 51.6141C73.8286 51.647 73.4711 51.4161 73.3429 51.0536C73.2139 50.6903 73.3462 50.286 73.6651 50.0698C74.1434 49.6778 74.6119 49.2693 75.0697 48.8444C86.4387 38.3416 85.2634 9.21744 85.2535 8.88711C85.242 8.66192 85.3209 8.44247 85.473 8.27564C85.6242 8.10962 85.8354 8.01018 86.0606 8.00031C86.5241 7.98798 86.9154 8.34385 86.9474 8.80739C86.9975 10.0328 88.1629 39.0484 76.2359 50.1197C75.751 50.5651 75.2595 50.9966 74.7614 51.4149L74.7606 51.4141C74.6077 51.544 74.413 51.6147 74.2124 51.6138L74.2125 51.6141Z" fill="#595A5A"/>
<path d="M33.5884 46.232C32.9366 46.2328 32.2914 46.0972 31.6956 45.8334L25.5973 43.0933C24.445 42.5986 23.5393 41.6625 23.0815 40.4945C22.6238 39.3274 22.6525 38.0248 23.1613 36.8781C23.67 35.7324 24.616 34.8366 25.7888 34.3928C26.9616 33.949 28.2635 33.9926 29.4034 34.5145L35.492 37.2152V37.2144C36.6295 37.7206 37.5204 38.6568 37.9691 39.8189C38.417 40.981 38.3866 42.273 37.8836 43.4122C37.5179 44.248 36.9179 44.9598 36.1552 45.4603C35.3925 45.9608 34.5008 46.2295 33.5885 46.232L33.5884 46.232ZM27.5006 35.8392C26.0714 35.8179 24.8271 36.8107 24.5312 38.2088C24.2354 39.6068 24.9701 41.0187 26.2851 41.5786L32.3737 44.2793H32.3729C33.1027 44.6138 33.9361 44.6401 34.6856 44.3532C35.4351 44.0664 36.0384 43.4903 36.3589 42.7547C36.6926 42.0248 36.7197 41.1915 36.4329 40.4419C36.1461 39.6924 35.5699 39.0891 34.8344 38.7686L28.6965 36.1188C28.3209 35.9437 27.9141 35.8484 27.5007 35.8394L27.5006 35.8392Z" fill="#595A5A"/>
<path d="M80.6504 59.1675H80.4515C69.7801 56.5268 52.0831 49.7611 51.9042 49.6913L51.7546 49.6116L43.7832 44.6292C43.5539 44.4854 43.272 44.4525 43.0155 44.5397C42.7632 44.6194 42.5619 44.8109 42.4673 45.0583C42.1953 45.7651 41.8337 46.4349 41.3915 47.0505C40.1562 48.7239 38.3834 49.9229 36.3707 50.4474C34.3579 50.971 32.226 50.7885 30.3315 49.9305L23.3563 46.8214C21.1265 45.8351 19.394 43.9818 18.559 41.6903C17.7248 39.398 17.8595 36.8658 18.9321 34.6755C19.9931 32.5987 21.8104 31.0091 24.0097 30.2342C26.209 29.4592 28.6213 29.5578 30.7499 30.5103L36.7981 33.1904L55.73 40.783L71.7525 49.1925V49.1933C74.0135 50.5009 76.1248 52.051 78.0498 53.8165L78.1295 53.906L81.2782 57.7722C81.4869 58.0261 81.5305 58.3771 81.3891 58.6738C81.2486 58.9705 80.9486 59.1587 80.6207 59.1579L80.6504 59.1675ZM52.6102 48.0771C53.7962 48.5357 68.1445 53.9757 78.378 56.7957L76.8838 55.0525C75.07 53.3915 73.0819 51.9318 70.9547 50.6982L55.012 42.3381L36.0801 34.7753L30.022 32.0853C28.2961 31.3061 26.3358 31.2198 24.5482 31.8453C22.7606 32.4699 21.2813 33.7578 20.4166 35.4427C19.5552 37.2065 19.4492 39.2447 20.1215 41.0891C20.7946 42.9325 22.1885 44.4235 23.9834 45.2182L30.9587 48.3273V48.3265C32.4923 49.0218 34.2182 49.1722 35.8496 48.7514C37.4811 48.3306 38.9194 47.3657 39.9262 46.0145C40.2861 45.5164 40.5804 44.974 40.8031 44.4003C41.0784 43.6787 41.6636 43.119 42.3976 42.8757C43.1373 42.6275 43.9501 42.7269 44.6093 43.1453L52.6102 48.0771Z" fill="#595A5A"/>
<path d="M48.5055 32.6823C47.5973 32.6815 46.708 32.4185 45.9453 31.9229C45.1834 31.4281 44.581 30.723 44.2112 29.892L41.5104 23.8035L41.5113 23.8043C40.8538 22.2756 41.0551 20.5134 42.0397 19.1721C43.0252 17.8316 44.646 17.1124 46.3012 17.2818C47.9565 17.4519 49.3981 18.485 50.0901 19.9972L52.7908 26.0858C53.2938 27.2249 53.3242 28.517 52.8763 29.679C52.4275 30.8412 51.5366 31.7773 50.3992 32.2836C49.8026 32.5474 49.1582 32.683 48.5056 32.6822L48.5055 32.6823ZM45.7957 18.892C44.779 18.8871 43.8297 19.3992 43.2757 20.2514C42.7217 21.1037 42.6387 22.1796 43.0554 23.1066L45.7561 29.1952H45.7553C46.4268 30.7082 48.1979 31.3905 49.7111 30.7197C50.4384 30.3967 51.0072 29.7992 51.2932 29.0571C51.5792 28.3158 51.5586 27.4906 51.2356 26.7633L48.5457 20.6756C48.0657 19.5866 46.9857 18.8863 45.7957 18.8921L45.7957 18.892Z" fill="#595A5A"/>
<path d="M53.0397 58.9679C52.7266 58.9679 52.4398 58.7953 52.2918 58.52L45.3166 45.3575L45.3174 45.3567C45.0972 44.9441 45.2533 44.4313 45.6659 44.211C46.0785 43.9907 46.5922 44.1469 46.8116 44.5595L53.7868 57.722V57.7228C53.9265 57.985 53.9191 58.3014 53.7654 58.557C53.6126 58.8118 53.3372 58.9679 53.0397 58.9679L53.0397 58.9679Z" fill="#595A5A"/>
<path d="M64.9357 74.8696C64.7401 74.8705 64.5502 74.8031 64.3982 74.6798L60.5813 71.5311L60.4917 71.4514C58.7312 69.5356 57.1844 67.434 55.8784 65.1838L54.284 62.1946C54.0637 61.782 54.2199 61.2692 54.6325 61.0489C55.0459 60.8287 55.5587 60.9848 55.779 61.3974L57.3537 64.3866H57.3529C58.5824 66.503 60.0355 68.4803 61.6876 70.286L63.4908 71.7604C62.5538 68.3027 61.2191 63.789 59.7341 59.2054H59.7349C59.5919 58.7599 59.8368 58.2824 60.2831 58.1394C60.7285 57.9964 61.2061 58.2413 61.3491 58.6876C63.2221 64.537 64.8863 70.2062 65.7831 73.843C65.8439 74.0961 65.7855 74.3633 65.6244 74.5671C65.4625 74.7717 65.216 74.8901 64.9562 74.8892L64.9357 74.8696Z" fill="#595A5A"/>
<path d="M59.5852 56.8342C59.2195 56.8359 58.894 56.6024 58.7782 56.2564C58.2103 54.5428 57.6719 52.9582 57.1837 51.603C57.0498 51.169 57.2807 50.7071 57.7089 50.5543C58.1363 50.4022 58.608 50.6143 58.7782 51.0351C59.2664 52.4002 59.7743 54.0242 60.3825 55.7281C60.4647 55.9845 60.4203 56.264 60.2633 56.4826C60.1055 56.7004 59.854 56.831 59.5852 56.8343V56.8342Z" fill="#595A5A"/>
<path d="M51.6154 36.926C51.2118 36.9195 50.8683 36.6285 50.796 36.2316C50.7228 35.8338 50.9406 35.4409 51.3162 35.2913C51.8891 35.0727 52.4315 34.7809 52.9304 34.425C54.2816 33.4182 55.2465 31.9791 55.6673 30.3485C56.0881 28.7171 55.9377 26.9912 55.2424 25.4567L52.1333 18.4815V18.4823C51.3394 16.6873 49.8486 15.2935 48.005 14.6204C46.1607 13.9473 44.1225 14.0541 42.3587 14.9146C40.6755 15.7817 39.3893 17.261 38.7646 19.0479C38.14 20.8355 38.2247 22.7941 39.0005 24.5209L41.6905 30.579H41.6913C41.8466 30.9981 41.6502 31.4658 41.2418 31.6474C40.8333 31.8299 40.3541 31.6622 40.147 31.2661L37.4768 25.1587C36.5185 23.0267 36.4182 20.608 37.1957 18.4044C37.9724 16.2001 39.5684 14.3797 41.6512 13.3212C43.8284 12.2749 46.336 12.1516 48.6052 12.9784C50.8743 13.8061 52.7145 15.5131 53.7082 17.715L56.8173 24.6902C57.6754 26.5846 57.8578 28.7167 57.3335 30.7294C56.8091 32.7421 55.6108 34.5149 53.9374 35.7502C53.321 36.1915 52.6511 36.5531 51.9443 36.826C51.8424 36.8819 51.7306 36.9156 51.6156 36.9263L51.6154 36.926Z" fill="#595A5A"/>
<path d="M12.8446 44.9782C12.571 44.9773 12.3137 44.8434 12.1559 44.6198C11.9973 44.3963 11.957 44.1102 12.0474 43.8522C12.4518 42.524 13.3855 41.421 14.6282 40.8031C16.2572 40.1472 18.0679 40.0979 19.7296 40.6633C20.1356 40.8409 20.3361 41.3011 20.1899 41.7194C20.0436 42.137 19.5997 42.372 19.1716 42.2578C18.3858 42.012 17.5615 41.9175 16.7404 41.9783C16.0352 42.0038 15.3572 42.2529 14.8032 42.6901C14.2493 43.1273 13.8498 43.7298 13.6616 44.4095C13.5408 44.7563 13.2112 44.9856 12.8447 44.9782L12.8446 44.9782Z" fill="#595A5A"/>
<path d="M49.7702 45.3358C49.0995 45.3424 48.4617 45.0433 48.0376 44.5238C47.6127 44.0052 47.4467 43.3206 47.5856 42.6647C47.7253 42.008 48.1544 41.4508 48.7535 41.1484C49.3527 40.8467 50.0562 40.8328 50.6669 41.1114C51.6104 41.5412 52.129 42.5686 51.9137 43.5828C51.6983 44.5978 50.8074 45.326 49.7701 45.3358L49.7702 45.3358ZM49.7702 42.6153C49.5672 42.6178 49.3839 42.7386 49.3017 42.9244C49.1891 43.1833 49.305 43.4841 49.5614 43.6016C49.7036 43.6616 49.8647 43.6542 50.0011 43.5819C50.1384 43.5104 50.2354 43.3814 50.2674 43.2301C50.2986 43.0789 50.2616 42.9219 50.1655 42.8011C50.0693 42.6803 49.9247 42.6088 49.7702 42.6055L49.7702 42.6153Z" fill="#595A5A"/>
<path d="M34.2361 91.4116C33.7907 91.4124 33.4208 91.0689 33.3896 90.6243C32.3631 75.2494 38.6604 69.2517 38.9596 69.0013C39.3064 68.7079 39.8225 68.74 40.1299 69.0745C40.4373 69.4081 40.4266 69.9259 40.1053 70.2465C40.0255 70.3262 34.1269 76.0456 35.123 90.4934C35.1517 90.9586 34.8 91.3588 34.3364 91.3909L34.2361 91.4116Z" fill="#595A5A"/>
</svg>
