<svg width="100" height="100" viewBox="0 0 100 100" fill="none" xmlns="http://www.w3.org/2000/svg">
<rect width="100" height="100" fill="none"/>
<g clip-path="url(#clip0_401_107)">
<path d="M20.2641 74.7732C23.1373 77.0067 26.6202 78.3732 30.2302 78.7274C28.6373 81.7086 27.7475 85.0736 27.7475 88.5739V93.8699C27.7475 94.477 28.2386 94.9681 28.8457 94.9681H68.7867C69.3938 94.9681 69.8849 94.4761 69.8849 93.8699V88.5739C69.8849 85.0917 69.0041 81.7438 67.4256 78.7736C72.1265 78.5063 76.6588 76.5129 79.9922 73.1723C80.68 72.4845 81.0143 71.535 80.9119 70.5674C80.8086 69.6015 80.2822 68.7452 79.4676 68.2188L79.4667 68.2179C74.3863 64.9377 72.0368 58.8245 73.6079 52.9902C75.9328 47.1286 77.1116 40.9602 77.1116 34.6537V33.4051C77.1116 25.5693 73.7872 18.0026 67.9901 12.6448C62.1231 7.22181 54.5174 4.57609 46.5629 5.20772C31.9703 6.35934 20.5371 19.0093 20.5371 34.0332C20.5371 41.1279 22.0149 48.0041 24.9299 54.4709L25.0287 54.7998C26.5835 60.0142 24.9272 65.6801 20.8082 69.2346L20.1314 69.819C19.4029 70.4469 18.9997 71.3603 19.0241 72.3225C19.0513 73.2884 19.5016 74.1809 20.2627 74.7725L20.2641 74.7732ZM67.6904 92.7709H29.946V88.5739C29.946 84.7927 31.1031 81.1855 33.1364 78.1501C33.3104 77.8919 33.4888 77.6382 33.6737 77.3899C33.7516 77.2848 33.8305 77.1797 33.9111 77.0755C34.1023 76.8281 34.3016 76.5871 34.5046 76.3506C34.5916 76.2491 34.6785 76.1467 34.7673 76.0471C34.9703 75.8205 35.1796 75.6013 35.3925 75.3856C35.4931 75.2832 35.5928 75.179 35.6961 75.0793C35.9045 74.8773 36.1201 74.6834 36.3367 74.4913C36.4536 74.388 36.5677 74.282 36.6873 74.1823C36.8994 74.0038 37.1186 73.8344 37.3379 73.6658C37.4711 73.5635 37.6025 73.4574 37.7384 73.3578C37.9522 73.2019 38.1733 73.056 38.3935 72.9093C38.5439 72.8096 38.6907 72.7054 38.8438 72.6093C39.0613 72.4734 39.286 72.3484 39.5098 72.2206C39.6738 72.1273 39.8342 72.0294 40.0009 71.9397C40.0245 71.9271 40.0489 71.9171 40.0725 71.9044C40.0824 71.928 40.0969 71.9479 40.1069 71.9715C40.2709 72.3493 40.4585 72.7126 40.666 73.0606C40.7004 73.1186 40.7367 73.1756 40.7729 73.2336C40.9895 73.5798 41.225 73.9114 41.4824 74.224C41.5168 74.2657 41.553 74.3046 41.5884 74.3454C41.862 74.6671 42.152 74.9742 42.4646 75.256C42.4709 75.2624 42.4782 75.2669 42.4845 75.2732C42.798 75.5541 43.1324 75.8096 43.4803 76.047C43.5165 76.0715 43.551 76.0987 43.5872 76.1231C43.9261 76.3469 44.2804 76.5454 44.6455 76.7248C44.7053 76.7538 44.7642 76.7846 44.8258 76.8127C45.1874 76.9812 45.5607 77.1262 45.9439 77.2485C46.0101 77.2694 46.0771 77.2884 46.1442 77.3083C46.5356 77.4234 46.9343 77.5176 47.342 77.582C47.3955 77.5901 47.4481 77.5946 47.5015 77.6019C47.9328 77.6626 48.3705 77.7007 48.8154 77.7007C49.2603 77.7007 49.697 77.6626 50.1292 77.6019C50.1827 77.5946 50.2361 77.5901 50.2887 77.582C50.6955 77.5176 51.0942 77.4234 51.4847 77.3083C51.5526 77.2884 51.6206 77.2694 51.6877 77.2476C52.0691 77.1253 52.4415 76.9812 52.8022 76.8136C52.8647 76.7846 52.9254 76.7538 52.987 76.7239C53.3503 76.5454 53.7037 76.3479 54.0408 76.1259C54.0797 76.0996 54.116 76.0715 54.155 76.0452C54.4993 75.8106 54.8309 75.5568 55.1417 75.2796C55.1498 75.2714 55.1598 75.2651 55.168 75.2578C55.4797 74.9779 55.7678 74.6725 56.0405 74.3527C56.0768 74.3101 56.1148 74.2693 56.1511 74.2258C56.4066 73.915 56.6404 73.5852 56.856 73.2409C56.8932 73.1811 56.9303 73.1222 56.9665 73.0615C57.174 72.7144 57.3607 72.3538 57.5229 71.9787C57.5328 71.9542 57.5482 71.9334 57.5591 71.9089C57.5827 71.9216 57.6071 71.9316 57.6307 71.9443C57.7974 72.0331 57.9569 72.13 58.12 72.2233C58.3438 72.3511 58.5703 72.4771 58.7887 72.6139C58.9391 72.7081 59.0841 72.8105 59.2308 72.9083C59.4546 73.0569 59.6785 73.2046 59.895 73.3632C60.0282 73.4601 60.156 73.5634 60.2864 73.6631C60.5093 73.8344 60.7313 74.0065 60.947 74.1877C61.063 74.2856 61.1735 74.3871 61.2868 74.4877C61.5078 74.6834 61.728 74.8809 61.941 75.0875C62.0406 75.1835 62.1358 75.2841 62.2327 75.3819C62.4493 75.6021 62.6631 75.825 62.8697 76.0552C62.9558 76.1512 63.0391 76.25 63.1234 76.3478C63.33 76.5879 63.5321 76.8335 63.7269 77.0845C63.8048 77.185 63.88 77.2865 63.9561 77.388C64.1437 77.6399 64.3258 77.8972 64.5007 78.16C66.5312 81.1945 67.6883 84.7998 67.6883 88.5782L67.6904 92.7709ZM43.6803 70.453C43.7999 70.4186 43.9195 70.3869 44.04 70.3551C44.5683 70.2138 45.0992 70.0879 45.6329 69.9963C46.1594 69.9057 46.5445 69.449 46.5445 68.9135V65.3019C46.5445 64.7674 46.1594 64.3098 45.6329 64.2192C36.5429 62.6525 29.9467 54.8392 29.9467 45.6407V34.6878C32.6685 34.2511 39.785 32.4969 43.6993 25.9223C44.1877 26.601 44.8944 27.3911 45.8757 28.2038C45.9473 28.2627 46.008 28.3207 46.0814 28.3796C46.1838 28.4612 46.3043 28.5436 46.4122 28.6252C46.5943 28.7629 46.7701 28.9006 46.9694 29.0393C46.9884 29.0529 47.012 29.0655 47.031 29.0791C49.5772 30.8261 53.5458 32.5458 59.7127 33.4156C59.7715 33.4238 59.8368 33.4292 59.8957 33.4373C60.6178 33.537 61.3635 33.6276 62.1473 33.7019C62.2542 33.7119 62.3738 33.7173 62.4835 33.7264C63.2319 33.7934 63.9957 33.8541 64.8021 33.8967C64.9 33.9022 65.0087 33.9022 65.1075 33.9067C65.9348 33.9466 66.7801 33.9792 67.669 33.991L67.6917 45.6388C67.6917 54.8373 61.0952 62.6515 52.0055 64.2173C51.479 64.3079 51.0939 64.7646 51.0939 65.3001V68.9117C51.0939 69.4462 51.479 69.9038 52.0055 69.9944C52.5382 70.0859 53.0692 70.2119 53.5984 70.3533C53.718 70.385 53.8367 70.4167 53.9563 70.4511C54.4728 70.6006 54.9865 70.7691 55.4948 70.9639C55.512 70.9703 55.5283 70.9784 55.5455 70.9848C55.5283 71.0265 55.5175 71.0709 55.5002 71.1116C55.4368 71.2566 55.3598 71.3934 55.2882 71.533C55.1849 71.7332 55.0789 71.9326 54.9575 72.121C54.8714 72.256 54.7763 72.3838 54.6811 72.5125C54.5516 72.6892 54.4166 72.8613 54.2716 73.0244C54.1656 73.144 54.055 73.2582 53.9418 73.3705C53.7868 73.5237 53.6255 73.6695 53.4579 73.8082C53.3365 73.9087 53.2133 74.0075 53.0855 74.0999C52.907 74.2295 52.7204 74.3464 52.531 74.4587C52.3978 74.5376 52.2664 74.6191 52.1278 74.6889C51.9239 74.7931 51.711 74.881 51.4971 74.9661C51.3612 75.0205 51.2271 75.0812 51.0876 75.1274C50.8466 75.2072 50.5965 75.2633 50.3455 75.3168C50.2223 75.3431 50.1027 75.3811 49.9776 75.4011C49.598 75.4627 49.212 75.498 48.8178 75.498C48.4237 75.498 48.0377 75.4618 47.6581 75.4011C47.533 75.3811 47.4143 75.3431 47.2911 75.3168C47.041 75.2624 46.79 75.2063 46.549 75.1274C46.4086 75.0812 46.2763 75.0205 46.1395 74.967C45.9247 74.8819 45.7118 74.794 45.5079 74.6898C45.3702 74.6191 45.2388 74.5385 45.1065 74.4596C44.9162 74.3464 44.7287 74.2286 44.5502 74.099C44.4233 74.0066 44.301 73.9087 44.1805 73.8091C44.012 73.6695 43.8489 73.5227 43.693 73.3687C43.5816 73.2582 43.4719 73.144 43.3668 73.0262C43.22 72.8613 43.0832 72.6864 42.9518 72.5079C42.8594 72.382 42.7661 72.2569 42.6809 72.1246C42.5568 71.9317 42.4489 71.7269 42.342 71.5212C42.2732 71.3871 42.1998 71.2557 42.1382 71.1171C42.1191 71.0745 42.1083 71.0274 42.0901 70.9848C42.1092 70.9775 42.1273 70.9685 42.1463 70.9621C42.6537 70.7691 43.1657 70.6015 43.6803 70.4529L43.6803 70.453ZM21.5709 71.485L22.2478 70.9006C27.0192 66.7815 28.9393 60.2161 27.137 54.1752L27.0183 53.7747C27.0047 53.7267 26.9875 53.6805 26.9667 53.6352C24.1604 47.4349 22.7381 40.8394 22.7381 34.0066C22.7381 20.148 33.2803 8.461 46.7388 7.39862C54.0645 6.81692 61.0894 9.25701 66.5015 14.2586C71.8502 19.2014 74.9172 26.1801 74.9172 33.4051V34.6537C74.9172 40.7009 73.7837 46.6168 71.5466 52.2355C71.5312 52.2727 71.5176 52.3125 71.5067 52.3515C69.6501 59.1326 72.3702 66.2509 78.2778 70.0636C78.5324 70.2285 78.6973 70.4967 78.7291 70.7994C78.7617 71.1038 78.6557 71.4019 78.4391 71.6194C75.2615 74.8035 70.8587 76.6302 66.3582 76.6302H66.1299C66.0619 76.5323 65.9858 76.4408 65.9161 76.3438C65.7484 76.111 65.5781 75.8799 65.4005 75.6534C65.2763 75.4948 65.1486 75.3399 65.0199 75.1858C64.8378 74.9666 64.6548 74.7491 64.4636 74.5362C64.3222 74.3794 64.1764 74.2272 64.0305 74.075C63.842 73.8775 63.6526 73.6808 63.456 73.4897C63.292 73.3311 63.1235 73.1798 62.9549 73.0266C62.7638 72.8527 62.5744 72.6787 62.3759 72.512C62.1875 72.3525 61.9908 72.2012 61.797 72.049C61.6076 71.9004 61.42 71.749 61.2261 71.6068C61.0069 71.4464 60.7803 71.2969 60.5547 71.1456C60.3726 71.0224 60.1941 70.8955 60.0074 70.7777C59.7411 70.6101 59.4656 70.4552 59.1902 70.2984C59.0343 70.2096 58.883 70.1145 58.7244 70.0293C58.285 69.7937 57.8374 69.5717 57.3798 69.3669C56.0478 68.7698 54.6761 68.315 53.2897 68.0096V66.2065C55.7081 65.6819 57.9541 64.7568 59.9631 63.5081C65.9913 59.7631 69.8875 53.1108 69.8875 45.6401V45.6365L69.8775 32.8978C69.8757 32.2925 69.3837 31.8023 68.7793 31.8023C68.5093 31.8023 68.2556 31.7951 67.991 31.7923C67.6014 31.7887 67.2064 31.7869 66.8294 31.7778C66.563 31.7715 66.3129 31.7579 66.0529 31.7479C65.6986 31.7353 65.338 31.7244 64.9955 31.7072C64.6974 31.6918 64.4156 31.6691 64.1256 31.6501C63.8384 31.6311 63.5439 31.6156 63.2649 31.593C62.9667 31.5694 62.6859 31.5386 62.3968 31.5114C62.1422 31.487 61.8794 31.4661 61.6312 31.439C61.3494 31.4082 61.0839 31.371 60.8103 31.3375C60.5729 31.3076 60.3273 31.2804 60.0963 31.2487C59.8199 31.2097 59.5581 31.1653 59.2907 31.1236C59.0796 31.0901 58.8603 31.0593 58.6556 31.024C58.4037 30.9805 58.1663 30.9315 57.9225 30.8853C57.7169 30.8464 57.5039 30.8092 57.3046 30.7675C57.059 30.7168 56.8298 30.6615 56.5942 30.6081C56.4121 30.5664 56.2227 30.5274 56.046 30.4848C55.8005 30.425 55.5703 30.3616 55.3356 30.2991C55.1816 30.2583 55.0212 30.2194 54.8708 30.1768C54.6271 30.1079 54.3978 30.0363 54.1668 29.9648C54.039 29.9258 53.9049 29.8877 53.7799 29.8479C53.5325 29.7681 53.2978 29.6848 53.0632 29.6014C52.9662 29.567 52.8638 29.5344 52.7696 29.4999C52.5268 29.4111 52.2984 29.3196 52.071 29.229C51.9931 29.1982 51.9097 29.1683 51.8336 29.1366C51.5917 29.0369 51.3634 28.9354 51.1368 28.833C51.0834 28.8086 51.0254 28.7859 50.9728 28.7615C50.7309 28.65 50.5007 28.5367 50.277 28.4226C50.2461 28.4072 50.2135 28.3927 50.1836 28.3773C49.9381 28.2513 49.7043 28.1245 49.4814 27.9967C49.4751 27.9931 49.4687 27.9904 49.4624 27.9868C45.5453 25.7515 44.7606 23.3504 44.7381 23.2752C44.7191 23.2055 44.6828 23.1457 44.652 23.0822C44.6339 23.046 44.6239 23.0043 44.6013 22.9708C44.5614 22.9083 44.507 22.8575 44.4563 22.805C44.4291 22.7778 44.4101 22.7452 44.3811 22.7207C44.3276 22.6763 44.2633 22.6464 44.2017 22.6129C44.1654 22.5929 44.1337 22.5649 44.0948 22.5485C43.9915 22.506 43.88 22.4788 43.764 22.4697C43.2892 22.4398 42.8589 22.6971 42.6722 23.1248C38.8767 31.8124 28.8753 32.6224 28.8498 32.627C28.2427 32.627 27.7516 33.119 27.7516 33.7252V45.6402C27.7516 55.6017 34.6777 64.1071 44.3494 66.2066V68.0097C42.9622 68.3151 41.5912 68.7699 40.2593 69.367C39.8008 69.5727 39.3532 69.7947 38.9128 70.0312C38.7633 70.1109 38.622 70.2006 38.4752 70.2831C38.1907 70.4444 37.9062 70.6047 37.6298 70.7787C37.4504 70.892 37.2783 71.0143 37.1034 71.1321C36.8714 71.2879 36.6377 71.4429 36.412 71.6078C36.2172 71.7482 36.0351 71.8959 35.8494 72.0409C35.6518 72.1967 35.4525 72.3499 35.2595 72.513C35.0638 72.6779 34.8762 72.85 34.6868 73.0213C34.5165 73.1753 34.3461 73.3294 34.1803 73.4888C33.9846 73.6782 33.7961 73.8748 33.6086 74.0714C33.4627 74.2246 33.3159 74.3759 33.1746 74.5336C32.9843 74.7447 32.8012 74.9612 32.6191 75.1796C32.4896 75.3355 32.3609 75.4913 32.235 75.6517C32.0601 75.8755 31.8916 76.1029 31.7257 76.3331C31.6551 76.43 31.579 76.5224 31.511 76.6203C27.9356 76.4971 24.4409 75.2358 21.6129 73.0377C21.3737 72.8519 21.2323 72.5711 21.2241 72.2684C21.2196 72.0908 21.2595 71.7529 21.5703 71.4847L21.5709 71.485Z" fill="#595A5A"/>
</g>
<defs>
<clipPath id="clip0_401_107">
<rect width="61.933" height="90" fill="white" transform="translate(19 5)"/>
</clipPath>
</defs>
</svg>
