<svg width="100" height="100" viewBox="0 0 100 100" fill="none" xmlns="http://www.w3.org/2000/svg">
<rect width="100" height="100" fill="white"/>
<path d="M69.8224 40.2209C69.6129 40.0114 69.3608 39.7983 69.1264 39.5888V30.4162C69.1264 27.863 67.0454 25.782 64.4922 25.782H50.8949C48.3416 25.782 46.2606 27.863 46.2606 30.4162V39.7593C42.7308 42.9446 40.7067 47.4652 40.7067 52.2983V90.6293C40.7067 91.4141 41.3459 92.0498 42.1271 92.0498H73.4162C74.201 92.0498 74.8366 91.4106 74.8366 90.6293V52.2948C74.8366 47.7458 73.054 43.4596 69.8224 40.2209ZM49.1051 30.4162C49.1051 29.429 49.9077 28.6265 50.8949 28.6265H64.4922C65.4794 28.6265 66.2819 29.429 66.2819 30.4162V52.8594C66.2819 57.5966 62.429 61.4496 57.6917 61.4496C52.9581 61.4496 49.1051 57.5966 49.1051 52.8594V30.4162ZM71.9922 89.2018H43.5476V52.2948C43.5476 49.255 44.5312 46.375 46.2606 43.9993V52.8594C46.2606 59.1627 51.3885 64.2941 57.6917 64.2941C63.995 64.2941 69.1264 59.1662 69.1264 52.8594V43.8289C70.9588 46.2756 71.9957 49.1982 71.9957 52.2948V89.2018H71.9922Z" fill="#595A5A"/>
<path d="M52.7912 43.7225C53.576 43.7225 54.2117 43.0833 54.2117 42.3021V34.312C54.2117 33.5272 53.5724 32.8916 52.7912 32.8916C52.0099 32.8916 51.3707 33.5308 51.3707 34.312V42.2985C51.3672 43.0833 52.0064 43.7225 52.7912 43.7225Z" fill="#595A5A"/>
<path d="M52.7875 49.8907C53.5723 49.8907 54.208 49.2515 54.208 48.4702V46.7586C54.208 45.9738 53.5688 45.3381 52.7875 45.3381C52.0063 45.3381 51.3671 45.9773 51.3671 46.7586V48.4702C51.3635 49.2515 52.0027 49.8907 52.7875 49.8907Z" fill="#595A5A"/>
<path d="M32.1448 20.0044C36.8643 20.0044 40.7031 23.8432 40.7031 28.5626C40.7031 29.3474 41.3423 29.9831 42.1235 29.9831C42.9048 29.9831 43.544 29.3439 43.544 28.5626C43.544 23.8432 47.3827 20.0044 52.1022 20.0044C52.887 20.0044 53.5227 19.3652 53.5227 18.584C53.5227 17.8027 52.8835 17.1635 52.1022 17.1635C47.3827 17.1635 43.544 13.3247 43.544 8.60527C43.544 7.82047 42.9048 7.18481 42.1235 7.18481C41.3423 7.18481 40.7031 7.82402 40.7031 8.60527C40.7031 13.3247 36.8643 17.1635 32.1448 17.1635C31.36 17.1635 30.7244 17.8027 30.7244 18.584C30.7244 19.3652 31.36 20.0044 32.1448 20.0044ZM42.1271 14.1095C43.1675 15.9881 44.7194 17.5435 46.6015 18.584C44.7229 19.6244 43.1675 21.1763 42.1271 23.0584C41.0866 21.1798 39.5347 19.6244 37.6526 18.584C39.5312 17.5435 41.0866 15.9881 42.1271 14.1095Z" fill="#595A5A"/>
<path d="M39.5099 32.8914C36.7294 32.8914 34.4673 30.6294 34.4673 27.8524C34.4673 27.0676 33.8281 26.4319 33.0468 26.4319C32.2656 26.4319 31.6264 27.0711 31.6264 27.8524C31.6264 30.6294 29.3643 32.8914 26.5873 32.8914C25.8025 32.8914 25.1669 33.5306 25.1669 34.3119C25.1669 35.0931 25.8061 35.7323 26.5873 35.7323C29.3643 35.7323 31.6264 37.9944 31.6264 40.7749C31.6264 41.5597 32.2656 42.1954 33.0468 42.1954C33.8281 42.1954 34.4673 41.5562 34.4673 40.7749C34.4673 37.9944 36.7294 35.7323 39.5099 35.7323C40.2947 35.7323 40.9304 35.0931 40.9304 34.3119C40.9304 33.5306 40.2947 32.8914 39.5099 32.8914ZM33.0468 36.265C32.5177 35.5051 31.8537 34.8446 31.0937 34.3119C31.8537 33.7828 32.5142 33.1187 33.0468 32.3588C33.576 33.1187 34.24 33.7792 35 34.3119C34.24 34.8446 33.576 35.5051 33.0468 36.265Z" fill="#595A5A"/>
<path d="M60.1456 78.8042H48.4588C47.674 78.8042 47.0383 79.4434 47.0383 80.2246C47.0383 81.0059 47.6775 81.6451 48.4588 81.6451H60.1456C60.9304 81.6451 61.566 81.0059 61.566 80.2246C61.566 79.4434 60.9304 78.8042 60.1456 78.8042Z" fill="#595A5A"/>
<path d="M67.0774 78.8042H65.2131C64.4283 78.8042 63.7926 79.4434 63.7926 80.2246C63.7926 81.0059 64.4318 81.6451 65.2131 81.6451H67.0774C67.8622 81.6451 68.4979 81.0059 68.4979 80.2246C68.4979 79.4434 67.8622 78.8042 67.0774 78.8042Z" fill="#595A5A"/>
</svg>
